<!-- Generator: Adobe Illustrator 21.0.2, SVG Export Plug-In  -->
<svg version="1.1"
	 xmlns="http://www.w3.org/2000/svg" xmlns:xlink="http://www.w3.org/1999/xlink" xmlns:a="http://ns.adobe.com/AdobeSVGViewerExtensions/3.0/"
	 x="0px" y="0px" width="28px" height="28px" viewBox="0 0 28 28" style="enable-background:new 0 0 28 28;" xml:space="preserve">
<style type="text/css">
	.st0{fill:#EFAD00;}
</style>
<defs>
</defs>
<g>
	<path d="M3.3,28C1.5,28,0,26.5,0,24.7V3.3C0,1.5,1.5,0,3.3,0l21.4,0C26.5,0,28,1.5,28,3.3v21.4c0,1.8-1.5,3.3-3.3,3.3L3.3,28z"/>
	<path id="XMLID_1_" class="st0" d="M24.7,2L3.3,2C2.6,2,2,2.6,2,3.3v21.4C2,25.4,2.6,26,3.3,26l11.5,0v-9.3l-3.1,0v-3.6l3.1,0v-2.7
		c0-3.1,1.9-4.8,4.7-4.8c1.3,0,2.5,0.1,2.8,0.1V9l-1.9,0c-1.5,0-1.8,0.7-1.8,1.8v2.3l3.6,0l-0.5,3.6l-3.1,0V26l6.1,0
		c0.7,0,1.3-0.6,1.3-1.3V3.3C26,2.6,25.4,2,24.7,2z"/>
</g>
</svg>
