<!-- Generator: Adobe Illustrator 21.0.2, SVG Export Plug-In  -->
<svg version="1.1"
	 xmlns="http://www.w3.org/2000/svg" xmlns:xlink="http://www.w3.org/1999/xlink" xmlns:a="http://ns.adobe.com/AdobeSVGViewerExtensions/3.0/"
	 x="0px" y="0px" width="28px" height="28px" viewBox="0 0 28 28" style="enable-background:new 0 0 28 28;" xml:space="preserve">
<style type="text/css">
	.st0{fill:#EFAD00;}
</style>
<defs>
</defs>
<g>
	<path d="M14,28c-3.3,0-3.7,0-5-0.1c-1.4-0.1-2.5-0.3-3.5-0.7c-1.1-0.4-2-1-2.8-1.8c-0.8-0.8-1.4-1.7-1.8-2.8
		c-0.4-1.1-0.6-2.2-0.7-3.5C0,17.7,0,17.3,0,14c0-3.3,0-3.7,0.1-5c0.1-1.4,0.3-2.5,0.7-3.5c0.4-1.1,1-2,1.8-2.8
		c0.8-0.8,1.7-1.4,2.8-1.8C6.5,0.4,7.6,0.1,9,0.1C10.3,0,10.7,0,14,0c3.3,0,3.7,0,5,0.1c1.4,0.1,2.5,0.3,3.5,0.7
		c1.1,0.4,2,1,2.8,1.8c0.8,0.8,1.4,1.7,1.8,2.8c0.4,1.1,0.6,2.2,0.7,3.5c0.1,1.3,0.1,1.7,0.1,5c0,3.3,0,3.7-0.1,5
		c-0.1,1.4-0.3,2.5-0.7,3.5c-0.4,1.1-1,2-1.8,2.8c-0.8,0.8-1.7,1.4-2.8,1.8c-1.1,0.4-2.2,0.6-3.5,0.7C17.7,28,17.3,28,14,28z
		 M21.8,16.3c-0.8,2.7-2.9,4.8-5.5,5.5c1.2,0,1.6,0,2.5-0.1c1,0,1.4-0.2,1.6-0.3c0.3-0.1,0.5-0.2,0.7-0.4c0.2-0.2,0.3-0.4,0.4-0.7
		c0.1-0.2,0.2-0.6,0.3-1.6C21.8,17.9,21.8,17.5,21.8,16.3z M6.2,16.3c0,1.2,0,1.6,0.1,2.5c0,1,0.2,1.4,0.3,1.6
		C6.6,20.7,6.7,20.8,7,21c0.2,0.2,0.4,0.3,0.7,0.4c0.2,0.1,0.6,0.2,1.6,0.3c0.8,0,1.3,0.1,2.5,0.1C9,21.1,6.9,19,6.2,16.3z M14,12
		c-1.1,0-2,0.9-2,2s0.9,2,2,2s2-0.9,2-2S15.1,12,14,12z M21.5,10.8c0.1,0.3,0.2,0.6,0.3,0.9c0-0.4,0-0.7,0-1
		C21.7,10.8,21.6,10.8,21.5,10.8z M11.7,6.2c-1.2,0-1.6,0-2.5,0.1c-1,0-1.4,0.2-1.6,0.3C7.3,6.6,7.2,6.7,7,7
		C6.7,7.2,6.6,7.3,6.5,7.6C6.4,7.8,6.3,8.2,6.2,9.2c0,0.8-0.1,1.3-0.1,2.5C6.9,9,9,6.9,11.7,6.2z M16.3,6.2c0.3,0.1,0.6,0.2,0.9,0.3
		c0-0.1,0.1-0.2,0.1-0.3C17,6.2,16.7,6.2,16.3,6.2z"/>
	<g>
		<path id="XMLID_1_" class="st0" d="M10,14c0-2.2,1.8-4,4-4c2.2,0,4,1.8,4,4c0,2.2-1.8,4-4,4C11.8,18,10,16.2,10,14 M7.8,14
			c0,3.4,2.8,6.2,6.2,6.2c3.4,0,6.2-2.8,6.2-6.2S17.4,7.8,14,7.8C10.6,7.8,7.8,10.6,7.8,14 M19,7.6C19,8.4,19.6,9,20.4,9
			c0.8,0,1.4-0.6,1.4-1.4c0-0.8-0.6-1.4-1.4-1.4C19.6,6.2,19,6.8,19,7.6 M9.2,23.8c-1.2-0.1-1.8-0.2-2.2-0.4c-0.6-0.2-1-0.5-1.4-0.9
			c-0.4-0.4-0.7-0.8-0.9-1.4c-0.2-0.4-0.4-1.1-0.4-2.2c-0.1-1.3-0.1-1.6-0.1-4.8c0-3.2,0-3.6,0.1-4.8C4.3,8,4.5,7.3,4.6,6.9
			c0.2-0.6,0.5-1,0.9-1.4C6,5.1,6.4,4.9,6.9,4.6C7.3,4.5,8,4.3,9.2,4.2c1.3-0.1,1.6-0.1,4.8-0.1c3.2,0,3.6,0,4.8,0.1
			c1.2,0.1,1.8,0.2,2.2,0.4c0.6,0.2,1,0.5,1.4,0.9c0.4,0.4,0.7,0.8,0.9,1.4c0.2,0.4,0.4,1.1,0.4,2.2c0.1,1.3,0.1,1.6,0.1,4.8
			c0,3.2,0,3.6-0.1,4.8c-0.1,1.2-0.2,1.8-0.4,2.2c-0.2,0.6-0.5,1-0.9,1.4c-0.4,0.4-0.8,0.7-1.4,0.9c-0.4,0.2-1.1,0.4-2.2,0.4
			c-1.3,0.1-1.6,0.1-4.8,0.1C10.8,23.8,10.4,23.8,9.2,23.8 M9.1,2.1C7.8,2.1,6.9,2.3,6.1,2.6C5.4,2.9,4.7,3.3,4,4
			C3.3,4.7,2.9,5.4,2.6,6.1C2.3,6.9,2.1,7.8,2.1,9.1C2,10.3,2,10.7,2,14s0,3.7,0.1,4.9c0.1,1.3,0.3,2.1,0.6,2.9
			C2.9,22.6,3.3,23.3,4,24c0.7,0.7,1.3,1.1,2.1,1.4c0.8,0.3,1.6,0.5,2.9,0.6C10.3,26,10.7,26,14,26c3.3,0,3.7,0,4.9-0.1
			c1.3-0.1,2.1-0.3,2.9-0.6c0.8-0.3,1.5-0.7,2.1-1.4c0.7-0.7,1.1-1.3,1.4-2.1c0.3-0.8,0.5-1.6,0.6-2.9C26,17.7,26,17.3,26,14
			s0-3.7-0.1-4.9c-0.1-1.3-0.3-2.1-0.6-2.9C25.1,5.3,24.7,4.7,24,4c-0.7-0.7-1.3-1.1-2.1-1.4c-0.8-0.3-1.6-0.5-2.9-0.6
			C17.7,2,17.3,2,14,2C10.7,2,10.3,2,9.1,2.1"/>
	</g>
</g>
</svg>
