<?xml version="1.0" standalone="no"?>
<!DOCTYPE svg PUBLIC "-//W3C//DTD SVG 20010904//EN"
 "http://www.w3.org/TR/2001/REC-SVG-20010904/DTD/svg10.dtd">
<svg version="1.0" xmlns="http://www.w3.org/2000/svg"
 width="490.000000pt" height="490.000000pt" viewBox="0 0 490.000000 490.000000"
 preserveAspectRatio="xMidYMid meet">
<metadata>
Created by potrace 1.11, written by Peter Selinger 2001-2013
</metadata>
<g transform="translate(0.000000,490.000000) scale(0.100000,-0.100000)"
fill="#000000" stroke="none">
<path d="M401 4814 c-139 -31 -244 -123 -303 -267 l-21 -52 -2 -2025 c-1
-1505 2 -2038 11 -2077 35 -159 156 -281 314 -317 43 -9 490 -12 2065 -11
1106 1 2026 5 2045 9 153 36 283 168 313 317 20 96 17 4076 -2 4134 -46 136
-140 232 -276 280 -47 17 -160 18 -2073 19 -1415 1 -2038 -2 -2071 -10z"/>
</g>
</svg>
